<svg xmlns="http://www.w3.org/2000/svg" viewBox="0 0 64 64" role="img" aria-label="NusaHarvest mark">
  <rect width="64" height="64" rx="16" fill="#1f3d2b"/>
  <path d="M8 50c9-5 17-5 24 0s15 5 24 0v14H8z" fill="#2f6b45"/>
  <path d="M32 9c-6 7.5-9 12.5-9 16.5a9 9 0 0018 0C41 21.5 38 16.5 32 9z" fill="#e8c36a"/>
  <path d="M32 56V36" stroke="#f3f0e8" stroke-width="3" stroke-linecap="round"/>
  <path d="M32 46c-2-5-6.5-7.5-11-7.5 1 5 5 8 11 7.5zM32 42c2-5 6.5-7.5 11-7.5-1 5-5 8-11 7.5z" fill="#8fc39d"/>
</svg>
